<svg xmlns="http://www.w3.org/2000/svg" width="64" height="64" viewBox="0 0 32 32">
  <g transform="matrix(.347687 0 0 .347687 14.775537 5.277087)">
    <g transform="matrix(.232441 0 0 .232441 -50.19348 -29.321829)">
      <g fill-rule="evenodd">
        <path d="M341.153 349.75l-23.105 48.268-15.9-60.104zm-212.746 0l15.73 48.268 15.9-60.104z" fill="#999"/>
        <path d="M54.985 190.194l-.012.018 32.8 207.807h56.373l-4.605-48.268h28.924l3.684 48.268h118.1l3.684-48.268h28.74l-4.605 48.268h56.74L407.2 190.194H54.985z" fill="#b0b0b0" stroke="#ccc" stroke-linejoin="round"/>
        <path d="M135.558 317.94l16.956-63.528-1.192-128.3-31.8 64.093z" fill="#888"/>
        <path d="M257.328 113.532h70.27l-1.443 155.314H251.9zm-50.828.098l-68.445.042 1.622 154.622h69.684z" fill="#666"/>
        <path d="M145.14 254.4l-9.58 63.53h191.625l-11.4-63.076z" fill="#777"/>
        <path d="M327.184 317.94l-16.64-63.077.625-129.17 32.195 64.496z" fill="#888"/>
        <path d="M135.705 317.94l16.8-63.53-1.192-128.3-31.797 64.1z" fill="#888"/>
        <path d="M199.316 149.428l6.327 134.88h49.285l7.94-134.88z" fill="#777"/>
        <path d="M407.2 190.194L326.65 61.35h-191.5L54.985 190.194h64.54l31.625-63.844h52l-3.835 23.077h63.55l-3.36-23.776H311.3l32.06 64.543z" fill="#d0d0d0" stroke="#ccc" stroke-linejoin="round"/>
        <path d="M268.465 190.194L205.643 317.94H135.56l-16.035-127.745z" opacity=".15" fill="#fff"/>
        <path d="M151.15 126.35h52l-3.835 23.077h63.55l5.598 40.767H119.523z" opacity=".1" fill="#fff"/>
      </g>
      <path d="M151.15 126.35h52l-3.835 23.077h63.55l-3.36-23.776 52.235.043 31.62 64.5-16.18 127.746H135.558l-16.035-127.745z" fill="none" stroke="#ccc" stroke-linejoin="round"/>
    </g>
  </g>
</svg>
